<svg xmlns="http://www.w3.org/2000/svg" enable-background="new 0 0 25 25" viewBox="0 0 25 25"><path fill="#583689" d="M8.613,21.5c-2.917,0-5.173-0.914-6.705-2.716c-1.487-1.751-2.195-4.344-1.805-6.605c0.083-0.479,0.499-0.83,0.985-0.83h15.621c0.149,0.006,0.279-0.004,0.402-0.018c-0.302-1.291,0.029-2.712,0.638-3.625l0.335-0.501c0.305-0.458,0.924-0.582,1.382-0.279l0.503,0.332c0.808,0.616,1.357,1.292,1.664,2.034c0.876-0.024,1.841,0.139,2.447,0.544l0.474,0.315c0.419,0.278,0.566,0.823,0.345,1.274l-0.055,0.112c-0.083,0.169-0.199,0.405-0.263,0.523l0,0c-0.91,1.729-2.504,2.076-3.511,2.139C18.846,18.914,14.449,21.5,8.613,21.5z M2,13.349c-0.016,1.463,0.523,3.071,1.432,4.14C4.566,18.823,6.31,19.5,8.613,19.5c5.222,0,9.085-2.371,10.877-6.676c0.158-0.379,0.544-0.623,0.942-0.616c0.844,0.02,1.685-0.079,2.219-0.823c-0.379-0.09-1.002-0.144-1.573-0.036c-0.271,0.052-0.547-0.012-0.768-0.171c-0.222-0.16-0.369-0.403-0.406-0.674c-0.064-0.465-0.29-0.88-0.702-1.282c-0.272,0.681-0.309,1.6,0.082,2.195c0.154,0.234,0.202,0.523,0.133,0.795s-0.249,0.502-0.497,0.635c-0.292,0.157-1.096,0.535-2.229,0.501H2z"/><path fill="#DE002A" d="M16.5,13.342H2.001c-0.552,0-1-0.448-1-1V9.494c0-0.552,0.448-1,1-1H16.5c0.552,0,1,0.448,1,1v2.848C17.5,12.895,17.052,13.342,16.5,13.342z M3.001,11.342H15.5v-0.848H3.001V11.342z"/><path fill="#DE002A" d="M13.5,10.494h-9c-0.552,0-1-0.448-1-1V6.646c0-0.552,0.448-1,1-1h9c0.552,0,1,0.448,1,1v2.849C14.5,10.046,14.052,10.494,13.5,10.494z M5.5,8.494h7V7.646h-7V8.494z"/><path fill="#DE002A" d="M13.5,13.342h-3c-0.552,0-1-0.448-1-1V3.797c0-0.552,0.448-1,1-1h3c0.552,0,1,0.448,1,1v8.545C14.5,12.895,14.052,13.342,13.5,13.342z M11.5,11.342h1V4.797h-1V11.342z"/><path fill="#DE002A" d="M10.5,13.342h-3c-0.552,0-1-0.448-1-1V6.646c0-0.552,0.448-1,1-1h3c0.552,0,1,0.448,1,1v5.697C11.5,12.895,11.052,13.342,10.5,13.342z M8.5,11.342h1V7.646h-1V11.342z"/><path fill="#DE002A" d="M7.5,13.342h-3c-0.552,0-1-0.448-1-1V9.494c0-0.552,0.448-1,1-1h3c0.552,0,1,0.448,1,1v2.848C8.5,12.895,8.052,13.342,7.5,13.342z M5.5,11.342h1v-0.848h-1V11.342z"/></svg>