<svg xmlns="http://www.w3.org/2000/svg" enable-background="new 0 0 24 24" viewBox="0 0 24 24"><path fill="#FF7A55" d="M10.649,21.992H8.531c-0.276,0-0.5-0.224-0.5-0.5v-8.006H5.539c-0.276,0-0.5-0.224-0.5-0.5v-0.924c0-1.016,0-1.178,0.19-1.324c0.012-0.011,0.024-0.02,0.04-0.029c0.006-0.004,0.012-0.008,0.018-0.012l0.001,0.002c0.228-0.111,0.92-0.107,4.318-0.104l4.021,0.011c0.273,0.001,0.496,0.221,0.499,0.494l0.018,1.883c0.001,0.133-0.051,0.262-0.145,0.356c-0.094,0.094-0.222,0.147-0.355,0.147h-2.495v8.006C11.149,21.769,10.925,21.992,10.649,21.992z"/><path fill="#110638" d="M23.5,24h-23C0.224,24,0,23.776,0,23.5v-23C0,0.224,0.224,0,0.5,0h23C23.776,0,24,0.224,24,0.5v23C24,23.776,23.776,24,23.5,24z M1,23h22V1H1V23z"/><path fill="#110638" d="M18.165,22.114c-0.393,0-0.804-0.024-1.068-0.072c-1.03-0.185-2.011-0.699-2.623-1.377c-0.932-1.029-0.73-1.359-0.654-1.483c0.077-0.117,0.163-0.178,0.388-0.307c0.001-0.001,0.002-0.001,0.003-0.002c0.103-0.058,0.487-0.28,0.85-0.491l0.662-0.383c0.226-0.133,0.517-0.066,0.664,0.152l0.139,0.205c0.162,0.246,0.525,0.585,0.691,0.673c0.585,0.309,1.365,0.233,1.671-0.042c0.091-0.077,0.135-0.171,0.135-0.275c-0.001-0.222-0.011-0.235-0.085-0.343c-0.108-0.155-0.492-0.365-1.368-0.747c-1.242-0.534-1.809-0.887-2.332-1.45c-0.342-0.387-0.595-0.842-0.739-1.326c-0.118-0.437-0.142-1.326-0.056-1.733c0.285-1.337,1.314-2.298,2.754-2.571c0.475-0.09,1.482-0.063,1.958,0.057c0.669,0.168,1.202,0.476,1.678,0.968c0.01,0.012,0.597,0.646,0.676,0.964c0.095,0.356,0.113,0.422-1.819,1.622c-0.286,0.192-0.591,0.07-0.887-0.372c-0.233-0.338-0.419-0.41-0.701-0.43c-0.223-0.017-0.402,0.027-0.501,0.121c-0.071,0.067-0.107,0.169-0.106,0.304c-0.001,0.084,0.009,0.137,0.03,0.182c0.006,0.012,0.012,0.022,0.018,0.034c0.075,0.156,0.263,0.3,1.081,0.653c1.747,0.752,2.507,1.263,3.008,2.023c0.579,0.878,0.709,2.217,0.317,3.256c-0.431,1.133-1.471,1.892-2.929,2.138C18.815,22.097,18.497,22.114,18.165,22.114z M14.925,19.616c0.1,0.142,0.212,0.292,0.29,0.378c0.469,0.52,1.238,0.917,2.058,1.063c0.373,0.066,1.242,0.076,1.578,0.018c1.097-0.186,1.864-0.72,2.164-1.507c0.277-0.733,0.184-1.744-0.217-2.351c-0.378-0.574-1.027-0.992-2.57-1.656c-0.9-0.39-1.325-0.633-1.566-1.099c-0.002-0.005-0.005-0.009-0.007-0.014c-0.105-0.195-0.16-0.415-0.16-0.636c-0.001-0.451,0.145-0.811,0.423-1.072c0.309-0.289,0.74-0.426,1.255-0.39c0.57,0.04,0.993,0.265,1.353,0.722c0.295-0.19,0.597-0.392,0.82-0.544c-0.074-0.092-0.159-0.192-0.235-0.273c-0.345-0.357-0.704-0.564-1.195-0.687c-0.33-0.083-1.201-0.106-1.531-0.046c-1.046,0.199-1.762,0.854-1.962,1.796c-0.052,0.248-0.032,0.987,0.034,1.234c0.105,0.353,0.286,0.678,0.524,0.947c0.411,0.442,0.877,0.726,1.987,1.204c1.162,0.505,1.546,0.74,1.793,1.094c0.199,0.289,0.262,0.499,0.262,0.87c0.001,0.44-0.173,0.815-0.477,1.072c-0.644,0.578-1.875,0.658-2.794,0.173c-0.277-0.146-0.664-0.494-0.923-0.82l-0.265,0.153C15.333,19.38,15.096,19.517,14.925,19.616z"/></svg>