<?xml version="1.0" encoding="UTF-8" standalone="no" ?>
<!DOCTYPE svg PUBLIC "-//W3C//DTD SVG 1.1//EN" "http://www.w3.org/Graphics/SVG/1.1/DTD/svg11.dtd">
<svg xmlns="http://www.w3.org/2000/svg" xmlns:xlink="http://www.w3.org/1999/xlink" version="1.1" width="384" height="385" viewBox="0 0 384 385" xml:space="preserve">
<desc>Created with Fabric.js 3.6.3</desc>
<defs>
</defs>
<g transform="matrix(1 0 0 1 192.5 192.6)"  >
<path style="stroke: none; stroke-width: 1; stroke-dasharray: none; stroke-linecap: butt; stroke-dashoffset: 0; stroke-linejoin: miter; stroke-miterlimit: 4; fill: rgb(255,255,255); fill-rule: nonzero; opacity: 1;"  transform=" translate(-255.95, -256.3)" d="M 443.6 387.1 L 312.4 255.4 l 131.5 -130 c 5.4 -5.4 5.4 -14.2 0 -19.6 l -37.4 -37.6 c -2.6 -2.6 -6.1 -4 -9.8 -4 c -3.7 0 -7.2 1.5 -9.8 4 L 256 197.8 L 124.9 68.3 c -2.6 -2.6 -6.1 -4 -9.8 -4 c -3.7 0 -7.2 1.5 -9.8 4 L 68 105.9 c -5.4 5.4 -5.4 14.2 0 19.6 l 131.5 130 L 68.4 387.1 c -2.6 2.6 -4.1 6.1 -4.1 9.8 c 0 3.7 1.4 7.2 4.1 9.8 l 37.4 37.6 c 2.7 2.7 6.2 4.1 9.8 4.1 c 3.5 0 7.1 -1.3 9.8 -4.1 L 256 313.1 l 130.7 131.1 c 2.7 2.7 6.2 4.1 9.8 4.1 c 3.5 0 7.1 -1.3 9.8 -4.1 l 37.4 -37.6 c 2.6 -2.6 4.1 -6.1 4.1 -9.8 c -0.1 -3.6 -1.6 -7.1 -4.2 -9.7 z" stroke-linecap="round" />
</g>
</svg>