<svg xmlns="http://www.w3.org/2000/svg" enable-background="new 0 0 24 24" viewBox="0 0 24 24"><path fill="#6766DB" d="M19.77 16.2c-.174 0-.343-.091-.435-.253l-7.029-12.4c-.137-.24-.052-.545.188-.682.236-.135.544-.052.681.188l7.029 12.4c.137.24.052.545-.188.682C19.938 16.179 19.854 16.2 19.77 16.2zM19 17.5C5.256 17.288 4.5 17.957 4.5 17c0-.963.795-.289 14.5-.5.276 0 .5.224.5.5S19.276 17.5 19 17.5zM3.994 16.135c-.24-.136-.325-.441-.188-.682l7.029-12.4c.136-.241.443-.324.681-.188.24.136.325.441.188.682l-7.029 12.4C4.538 16.189 4.231 16.27 3.994 16.135z"/><path fill="#110638" d="M12.009 4c-1.103 0-2-.897-2-2s.897-2 2-2 2 .897 2 2S13.111 4 12.009 4zM12.009 1c-.552 0-1 .449-1 1s.448 1 1 1 1-.449 1-1S12.561 1 12.009 1zM12.009 24c-1.103 0-2-.897-2-2s.897-2 2-2 2 .897 2 2S13.111 24 12.009 24zM12.009 21c-.552 0-1 .449-1 1s.448 1 1 1 1-.449 1-1S12.561 21 12.009 21zM20.5 9c-1.103 0-2-.897-2-2s.897-2 2-2 2 .897 2 2S21.603 9 20.5 9zM20.5 6c-.552 0-1 .449-1 1s.448 1 1 1 1-.449 1-1S21.052 6 20.5 6zM3.5 9c-1.103 0-2-.897-2-2s.897-2 2-2 2 .897 2 2S4.603 9 3.5 9zM3.5 6c-.552 0-1 .449-1 1s.448 1 1 1 1-.449 1-1S4.052 6 3.5 6zM20.5 19c-1.103 0-2-.897-2-2s.897-2 2-2 2 .897 2 2S21.603 19 20.5 19zM20.5 16c-.552 0-1 .449-1 1s.448 1 1 1 1-.449 1-1S21.052 16 20.5 16zM3.5 19c-1.103 0-2-.897-2-2s.897-2 2-2c.768 0 1.234.347 1.491.638.321.364.497.848.497 1.363C5.488 17.994 4.806 19 3.5 19zM3.5 16c-.552 0-1 .449-1 1s.448 1 1 1c.317 0 .566-.101.742-.299.156-.178.246-.433.246-.7C4.488 16.539 4.229 16 3.5 16z"/><path fill="#110638" d="M19.22 6.74c-.087 0-.174-.022-.253-.069l-5.93-3.48c-.238-.14-.318-.446-.179-.684.142-.24.449-.318.685-.178l5.93 3.48c.238.14.318.446.179.684C19.558 6.652 19.391 6.74 19.22 6.74zM10.73 21.74H10.72c-.089 0-.177-.024-.253-.069l-5.909-3.468c-.161-.083-.272-.251-.272-.444 0-.365.445-.615.758-.431l5.908 3.468c.162.083.274.25.274.444C11.226 21.517 11.007 21.74 10.73 21.74zM4.79 6.74c-.276 0-.505-.224-.505-.5 0-.208.124-.387.304-.462l5.878-3.45c.313-.184.759.066.759.431 0 .209-.126.389-.308.463L5.043 6.671C4.967 6.716 4.879 6.74 4.79 6.74zM3.5 16C3.224 16 3 15.776 3 15.5v-7C3 8.224 3.224 8 3.5 8S4 8.224 4 8.5v7C4 15.776 3.776 16 3.5 16zM13.29 21.74c-.171 0-.338-.088-.432-.247-.14-.238-.06-.544.179-.684l5.93-3.48c.233-.14.542-.061.685.178.14.238.06.544-.179.684l-5.93 3.48C13.464 21.718 13.377 21.74 13.29 21.74zM20.5 16c-.276 0-.5-.224-.5-.5v-7C20 8.224 20.224 8 20.5 8S21 8.224 21 8.5v7C21 15.776 20.776 16 20.5 16z"/></svg>